<svg t="1765647659217" class="icon" viewBox="0 0 1445 1024" version="1.1" xmlns="http://www.w3.org/2000/svg" p-id="7573" width="200" height="200"><path d="M120.470588 0h1204.705883a120.470588 120.470588 0 0 1 120.470588 120.470588v783.058824a120.470588 120.470588 0 0 1-120.470588 120.470588H120.470588a120.470588 120.470588 0 0 1-120.470588-120.470588V120.470588a120.470588 120.470588 0 0 1 120.470588-120.470588z m25.178353 772.457412h542.117647v-18.552471c-9.336471-18.552471-28.069647-46.381176-46.742588-55.717647-37.345882-27.828706-102.821647-55.657412-140.227765-64.933647-9.336471-9.276235-37.345882-27.888941-9.33647-64.993882 37.345882-27.828706 56.079059-83.546353 65.415529-111.435294 9.336471-27.768471 9.336471-83.486118-9.33647-120.591059-18.672941-37.165176-28.009412-55.717647-65.41553-65.054118a177.091765 177.091765 0 0 0-74.752-18.492235c-28.069647 0-56.079059 9.276235-84.148706 27.828706-74.752 55.717647-46.742588 194.921412-46.742588 194.921411s37.345882 74.270118 56.079059 92.822589c18.672941 18.552471 18.672941 46.381176 0 55.717647-18.672941 18.552471-74.752 37.104941-84.088471 37.104941-18.672941 9.276235-74.812235 55.717647-84.148706 64.993882 0 0-9.336471 18.552471-18.672941 27.828706v18.552471zM813.176471 240.941176a30.117647 30.117647 0 1 0 0 60.235295h421.647058a30.117647 30.117647 0 1 0 0-60.235295h-421.647058z m120.470588 240.941177a30.117647 30.117647 0 1 0 0 60.235294h301.17647a30.117647 30.117647 0 1 0 0-60.235294h-301.17647z m60.235294 240.941176a30.117647 30.117647 0 1 0 0 60.235295h240.941176a30.117647 30.117647 0 1 0 0-60.235295h-240.941176z" fill="#ffffff" p-id="7574" data-spm-anchor-id="a313x.search_index.0.i0.3b0e3a8109ucgX" class="selected"></path></svg>